<?xml version="1.0" encoding="UTF-8" standalone="no"?>
<!-- Created with Inkscape (http://www.inkscape.org/) -->

<svg
   width="92.623482mm"
   height="25.120501mm"
   viewBox="0 0 92.623482 25.120501"
   version="1.1"
   id="svg1"
   inkscape:version="1.3.2 (091e20ef0f, 2023-11-25)"
   sodipodi:docname="fibre_coupler.svg"
   xmlns:inkscape="http://www.inkscape.org/namespaces/inkscape"
   xmlns:sodipodi="http://sodipodi.sourceforge.net/DTD/sodipodi-0.dtd"
   xmlns:xlink="http://www.w3.org/1999/xlink"
   xmlns="http://www.w3.org/2000/svg"
   xmlns:svg="http://www.w3.org/2000/svg"
   xmlns:ns1="http://www.iki.fi/pav/software/textext/">
  <sodipodi:namedview
     id="namedview1"
     pagecolor="#ffffff"
     bordercolor="#000000"
     borderopacity="0.25"
     inkscape:showpageshadow="2"
     inkscape:pageopacity="0.0"
     inkscape:pagecheckerboard="0"
     inkscape:deskcolor="#d1d1d1"
     inkscape:document-units="mm"
     inkscape:zoom="2.3786088"
     inkscape:cx="-205.37215"
     inkscape:cy="177.20442"
     inkscape:window-width="1576"
     inkscape:window-height="858"
     inkscape:window-x="0"
     inkscape:window-y="0"
     inkscape:window-maximized="1"
     inkscape:current-layer="layer1" />
  <defs
     id="defs1">
    <marker
       style="overflow:visible"
       id="marker74"
       refX="0"
       refY="0"
       orient="auto-start-reverse"
       inkscape:stockid="Stylized triangle arrow"
       markerWidth="1"
       markerHeight="1"
       viewBox="0 0 1 1"
       inkscape:isstock="true"
       inkscape:collect="always"
       preserveAspectRatio="xMidYMid">
      <path
         transform="scale(0.5)"
         style="fill:context-stroke;fill-rule:evenodd;stroke:context-stroke;stroke-width:1pt"
         d="m 6,0 c -3,1 -7,3 -9,5 0,0 0,-4 2,-5 -2,-1 -2,-5 -2,-5 2,2 6,4 9,5 z"
         id="path74" />
    </marker>
    <marker
       style="overflow:visible"
       id="marker73"
       refX="0"
       refY="0"
       orient="auto-start-reverse"
       inkscape:stockid="Stylized triangle arrow"
       markerWidth="1"
       markerHeight="1"
       viewBox="0 0 1 1"
       inkscape:isstock="true"
       inkscape:collect="always"
       preserveAspectRatio="xMidYMid">
      <path
         transform="scale(0.5)"
         style="fill:context-stroke;fill-rule:evenodd;stroke:context-stroke;stroke-width:1pt"
         d="m 6,0 c -3,1 -7,3 -9,5 0,0 0,-4 2,-5 -2,-1 -2,-5 -2,-5 2,2 6,4 9,5 z"
         id="path73" />
    </marker>
    <marker
       style="overflow:visible"
       id="marker72"
       refX="0"
       refY="0"
       orient="auto-start-reverse"
       inkscape:stockid="Stylized triangle arrow"
       markerWidth="1"
       markerHeight="1"
       viewBox="0 0 1 1"
       inkscape:isstock="true"
       inkscape:collect="always"
       preserveAspectRatio="xMidYMid">
      <path
         transform="scale(0.5)"
         style="fill:context-stroke;fill-rule:evenodd;stroke:context-stroke;stroke-width:1pt"
         d="m 6,0 c -3,1 -7,3 -9,5 0,0 0,-4 2,-5 -2,-1 -2,-5 -2,-5 2,2 6,4 9,5 z"
         id="path72" />
    </marker>
    <linearGradient
       id="linearGradient68"
       inkscape:collect="always">
      <stop
         style="stop-color:#ea9d34;stop-opacity:1;"
         offset="0"
         id="stop69" />
      <stop
         style="stop-color:#fad597;stop-opacity:1;"
         offset="1"
         id="stop70" />
    </linearGradient>
    <linearGradient
       id="linearGradient66"
       inkscape:collect="always">
      <stop
         style="stop-color:#ea9d34;stop-opacity:1;"
         offset="0.70384312"
         id="stop66" />
      <stop
         style="stop-color:#f5ce99;stop-opacity:1;"
         offset="0.83537173"
         id="stop68" />
    </linearGradient>
    <linearGradient
       inkscape:collect="always"
       xlink:href="#linearGradient66"
       id="linearGradient67"
       x1="11.847976"
       y1="11.258925"
       x2="90.661774"
       y2="11.258925"
       gradientUnits="userSpaceOnUse" />
    <linearGradient
       inkscape:collect="always"
       xlink:href="#linearGradient68"
       id="linearGradient70"
       x1="64.765686"
       y1="17.410542"
       x2="90.660469"
       y2="17.410542"
       gradientUnits="userSpaceOnUse" />
  </defs>
  <g
     inkscape:label="Layer 1"
     inkscape:groupmode="layer"
     id="layer1"
     transform="translate(-4.0782857,0.30608063)">
    <g
       id="g3"
       transform="translate(-1.9119081)">
      <path
         style="fill:none;stroke:#000000;stroke-width:0.205;stroke-miterlimit:4.1;stroke-opacity:1"
         d="m 11.906142,8.1444443 c 0,0 8.445933,5.8208337 19.674111,5.8208337 11.228178,0 27.9042,0 39.348224,0 11.444024,0 19.674111,-5.8208337 19.674111,-5.8208337"
         id="path1"
         sodipodi:nodetypes="czzc" />
      <path
         style="fill:none;stroke:#000000;stroke-width:0.205;stroke-miterlimit:4.1;stroke-opacity:1"
         d="m 11.906142,20.453269 c 0,0 8.445933,-5.820833 19.674111,-5.820833 11.228178,0 27.9042,0 39.348224,0 11.444024,0 19.674111,5.820833 19.674111,5.820833"
         id="path2"
         sodipodi:nodetypes="czzc" />
      <path
         style="fill:none;stroke:url(#linearGradient67);stroke-width:0.205;stroke-miterlimit:4.1;stroke-opacity:1"
         d="m 11.906142,8.1444443 c 0,0 8.445933,5.8208337 19.674111,5.8208337 0,0 26.722682,0.383455 33.185718,0.383455 M 90.602588,8.1444443 c 0,0 -8.230087,5.8208337 -19.674111,5.8208337 -1.830976,0.130335 -2.910737,0.375958 -6.16104,0.390027"
         id="path65"
         sodipodi:nodetypes="cscccc" />
      <path
         style="fill:none;stroke:url(#linearGradient70);stroke-width:0.205;stroke-miterlimit:4.1"
         d="m 90.601284,20.44896 c 0,0 -8.230087,-5.820834 -19.674111,-5.820834 -1.830976,-0.130335 -2.910737,-0.26399 -6.16104,-0.278059"
         id="path66"
         sodipodi:nodetypes="ccc" />
    </g>
    <g
       transform="matrix(0.328727,0,0,0.328727,7.70197,5.31126)"
       ns1:version="1.10.2"
       ns1:texconverter="lualatex"
       ns1:pdfconverter="inkscape"
       ns1:text="$$a$$"
       ns1:preamble="/home/hiro/Documents/org/roam/writeup/reworked_notes_on_the_io_theory/graphics/default_packages.tex"
       ns1:scale="0.9318245794777794"
       ns1:alignment="middle center"
       ns1:stroke-to-path="0"
       id="g4409"
       ns1:jacobian_sqrt="0.328727">
      <defs
         id="id-1e9e9959-e67e-44d0-9493-0a93fa5d7d6b">
        <g
           id="id-ffd6db9c-c52b-4344-9f78-3ad2979aa73a">
          <g
             id="id-be3c73ca-3569-4809-a395-f3e1698a5343">
            <path
               d="m 0.875,-1.921875 c 0,1.9375 1.109375,2.046875 1.46875,2.046875 0.625,0 1.328125,-0.453125 1.625,-0.640625 L 4.109375,-0.46875 C 4.171875,-0.171875 4.25,0.125 4.6875,0.125 5,0.125 5.546875,-0.21875 5.9375,-0.453125 l -0.0625,-0.25 c -0.21875,0.078125 -0.515625,0.1875 -0.65625,0.1875 -0.359375,0 -0.390625,-0.296875 -0.390625,-1.859375 0,-0.734375 0.03125,-1.46875 0.0625,-2.1875 L 4.84375,-4.609375 4.3125,-4.296875 C 4,-4.53125 3.5625,-4.640625 3.25,-4.640625 c -2.25,0 -2.375,2.203125 -2.375,2.71875 z m 0.90625,-0.21875 c 0.015625,-1.015625 0.296875,-1.5625 0.53125,-1.78125 0.265625,-0.25 0.59375,-0.375 0.953125,-0.375 0.25,0 0.5,0.140625 0.671875,0.328125 0.15625,0.171875 0.15625,0.4375 0.15625,0.6875 v 2.296875 C 3.875,-0.828125 3.4375,-0.53125 3.046875,-0.53125 c -0.59375,0 -1.265625,-0.171875 -1.265625,-1.609375 z m 0,0"
               id="id-d100caa4-a569-4472-8f96-42d95c41028b" />
          </g>
        </g>
      </defs>
      <g
         fill="#000000"
         fill-opacity="1"
         id="id-47f53c2f-bc9e-4531-91fd-6eaee9749a63"
         transform="translate(-303.465,-142.079)">
        <g
           transform="translate(302.59,146.72)"
           id="g6448">
          <g
             transform="translate(227.29363,-9.30851)"
             ns1:version="1.10.2"
             ns1:texconverter="lualatex"
             ns1:pdfconverter="inkscape"
             ns1:text="$$a'=a(\\Delta z)$$"
             ns1:preamble="/home/hiro/Documents/org/roam/writeup/reworked_notes_on_the_io_theory/graphics/default_packages.tex"
             ns1:scale="0.9318245794777794"
             ns1:alignment="middle center"
             ns1:stroke-to-path="0"
             ns1:inkscapeversion="1.3.2"
             id="g17"
             ns1:jacobian_sqrt="1.0">
            <defs
               id="id-9a9ff2bb-349a-43a9-a4ee-3194337e26af">
              <g
                 id="id-21680139-1423-4c68-8c45-493f5c4ff2b4">
                <g
                   id="id-d7c626bf-6960-4015-b64a-72955b31cf1a">
                  <path
                     d="m 0.875,-1.921875 c 0,1.9375 1.109375,2.046875 1.46875,2.046875 0.625,0 1.328125,-0.453125 1.625,-0.640625 L 4.109375,-0.46875 C 4.171875,-0.171875 4.25,0.125 4.6875,0.125 5,0.125 5.546875,-0.21875 5.9375,-0.453125 l -0.0625,-0.25 c -0.21875,0.078125 -0.515625,0.1875 -0.65625,0.1875 -0.359375,0 -0.390625,-0.296875 -0.390625,-1.859375 0,-0.734375 0.03125,-1.46875 0.0625,-2.1875 L 4.84375,-4.609375 4.3125,-4.296875 C 4,-4.53125 3.5625,-4.640625 3.25,-4.640625 c -2.25,0 -2.375,2.203125 -2.375,2.71875 z m 0.90625,-0.21875 c 0.015625,-1.015625 0.296875,-1.5625 0.53125,-1.78125 0.265625,-0.25 0.59375,-0.375 0.953125,-0.375 0.25,0 0.5,0.140625 0.671875,0.328125 0.15625,0.171875 0.15625,0.4375 0.15625,0.6875 v 2.296875 C 3.875,-0.828125 3.4375,-0.53125 3.046875,-0.53125 c -0.59375,0 -1.265625,-0.171875 -1.265625,-1.609375 z m 0,0"
                     id="id-01972773-27fc-4796-89e0-b7c900e159d9" />
                </g>
                <g
                   id="id-543a2b05-6a85-4c47-a6eb-a6632e88caaf">
                  <path
                     d="m 0.53125,-1.3125 h 6.609375 l 0.0625,-0.40625 h -6.59375 z m 0,-1.953125 h 6.609375 l 0.0625,-0.40625 h -6.59375 z m 0,0"
                     id="id-14a2959f-01d3-472e-865a-d1c399640f20" />
                </g>
                <g
                   id="id-d0b2f107-9657-46d1-bc84-9641457c3961">
                  <path
                     d="m 0.828125,-2.5 c 0,2.421875 0.390625,3.3125 0.703125,3.75 C 1.796875,1.609375 2.21875,2 2.703125,2.03125 V 1.796875 C 2.5,1.75 2.203125,1.59375 2.03125,1.390625 1.890625,1.234375 1.34375,0.578125 1.34375,-2.5 c 0,-2.109375 0.328125,-3.0625 0.546875,-3.53125 C 2.046875,-6.375 2.375,-6.671875 2.703125,-6.75 v -0.265625 c -0.40625,0.0625 -0.84375,0.390625 -1.09375,0.734375 -0.3125,0.453125 -0.78125,1.546875 -0.78125,3.78125 z m 0,0"
                     id="id-8eefccc8-64f8-4ce1-a260-187a277a348c" />
                </g>
                <g
                   id="id-9e58b95e-792f-4743-aa10-134fc18d186e">
                  <path
                     d="M 0.296875,-0.453125 0.3125,-0.03125 c 0.75,-0.046875 1.46875,-0.0625 2.203125,-0.0625 1.25,0 2.5,0.046875 3.734375,0.140625 L 6.859375,-0.28125 6.875,-0.4375 C 5.953125,-2.21875 5.109375,-4.21875 4.203125,-6.9375 L 3.625,-6.6875 Z M 1,-0.640625 c 0.796875,-1.6875 1.609375,-3.25 2.546875,-4.875 H 3.65625 c 0,0 1.59375,3.984375 2,4.921875 L 5.609375,-0.5 c -1.171875,0 -2.34375,-0.03125 -3.515625,-0.03125 -0.359375,0 -0.703125,0 -1.0625,0.015625 z m 0,0"
                     id="id-d538a7c4-fcf0-4f50-ab97-22fad41a17e6" />
                </g>
                <g
                   id="id-55111bd5-b52b-4a1e-8893-a78b11e3ccda">
                  <path
                     d="m 0.125,0.078125 0.140625,0.1875 h 0.0625 c 0.15625,-0.21875 0.375,-0.421875 0.625,-0.421875 l 1.15625,0.109375 c 0.4375,0.046875 1.1875,0.125 1.296875,0.125 0.625,0 0.828125,-0.390625 0.953125,-0.671875 L 4.78125,-1.390625 4.5625,-1.5 c -0.140625,0.1875 -0.28125,0.375 -0.453125,0.546875 -0.125,0.125 -0.40625,0.21875 -0.640625,0.21875 -0.09375,0 -1.0625,-0.015625 -2.046875,-0.125 L 1.375,-0.9375 C 2.359375,-2.265625 3.4375,-3.59375 4.265625,-4.46875 L 4.125,-4.609375 H 4.0625 c -0.203125,0.171875 -0.4375,0.3125 -0.71875,0.3125 -0.515625,0 -1.296875,-0.3125 -1.75,-0.3125 -0.359375,0 -0.4375,0.125 -0.609375,0.40625 l -0.5,0.890625 0.1875,0.125 c 0.3125,-0.421875 0.53125,-0.703125 0.890625,-0.703125 0.34375,0 0.875,0.1875 1.203125,0.1875 0.109375,0 0.1875,0 0.296875,-0.015625 z m 0,0"
                     id="id-2370eaa8-0b95-4dd8-9f3b-aee24fecd89e" />
                </g>
                <g
                   id="id-a5cc8c63-9f86-4272-8df9-2c06b1919926">
                  <path
                     d="M 0.5625,1.796875 V 2.03125 C 1.046875,1.96875 1.5,1.640625 1.78125,1.265625 2.078125,0.84375 2.46875,-0.078125 2.46875,-2.5 2.46875,-5 1.9375,-5.828125 1.640625,-6.28125 1.390625,-6.625 0.984375,-6.953125 0.5625,-7.015625 V -6.75 c 0.328125,0.09375 0.640625,0.375 0.796875,0.71875 C 1.578125,-5.5625 1.9375,-4.8125 1.9375,-2.5 1.9375,0.984375 1.421875,1.234375 1.28125,1.390625 1.109375,1.59375 0.765625,1.75 0.5625,1.796875 Z m 0,0"
                     id="id-9341a0c2-fbd9-403e-b1ae-a2bb36f7e741" />
                </g>
                <g
                   id="id-873b0ee9-8b43-4372-bfc1-89b8d71f4220">
                  <path
                     d="m 0.296875,-3.03125 c 0,0.078125 0.15625,0.125 0.203125,0.125 0.046875,0 0.078125,-0.046875 0.09375,-0.09375 C 1.5,-5.125 1.5,-5.125 1.5,-5.1875 c 0,-0.171875 -0.140625,-0.296875 -0.3125,-0.296875 -0.15625,0 -0.25,0.109375 -0.28125,0.25 L 0.328125,-3.09375 c 0,0.015625 -0.03125,0.046875 -0.03125,0.046875 z m 0,0"
                     id="id-e3e966f8-a2cf-4a2d-b2db-621395a5c84f" />
                </g>
              </g>
            </defs>
            <g
               fill="#000000"
               fill-opacity="1"
               id="id-16b42d9a-6ef1-4ed8-b3df-854f59bc788f"
               transform="translate(-283.593,-137.619)">
              <g
                 transform="translate(282.718,146.72)"
                 id="g6465">
                <path
                   d="m 0.875,-1.921875 c 0,1.9375 1.109375,2.046875 1.46875,2.046875 0.625,0 1.328125,-0.453125 1.625,-0.640625 L 4.109375,-0.46875 C 4.171875,-0.171875 4.25,0.125 4.6875,0.125 5,0.125 5.546875,-0.21875 5.9375,-0.453125 l -0.0625,-0.25 c -0.21875,0.078125 -0.515625,0.1875 -0.65625,0.1875 -0.359375,0 -0.390625,-0.296875 -0.390625,-1.859375 0,-0.734375 0.03125,-1.46875 0.0625,-2.1875 L 4.84375,-4.609375 4.3125,-4.296875 C 4,-4.53125 3.5625,-4.640625 3.25,-4.640625 c -2.25,0 -2.375,2.203125 -2.375,2.71875 z m 0.90625,-0.21875 c 0.015625,-1.015625 0.296875,-1.5625 0.53125,-1.78125 0.265625,-0.25 0.59375,-0.375 0.953125,-0.375 0.25,0 0.5,0.140625 0.671875,0.328125 0.15625,0.171875 0.15625,0.4375 0.15625,0.6875 v 2.296875 C 3.875,-0.828125 3.4375,-0.53125 3.046875,-0.53125 c -0.59375,0 -1.265625,-0.171875 -1.265625,-1.609375 z m 0,0"
                   id="id-d9ef0229-9e4e-43e6-a63d-a788f3576653" />
              </g>
            </g>
            <g
               fill="#000000"
               fill-opacity="1"
               id="id-da80f72b-0ff9-4597-9122-af0fc08025e7"
               transform="translate(-283.593,-137.619)">
              <g
                 transform="translate(288.785,143.103)"
                 id="g747">
                <path
                   d="m 0.296875,-3.03125 c 0,0.078125 0.15625,0.125 0.203125,0.125 0.046875,0 0.078125,-0.046875 0.09375,-0.09375 C 1.5,-5.125 1.5,-5.125 1.5,-5.1875 c 0,-0.171875 -0.140625,-0.296875 -0.3125,-0.296875 -0.15625,0 -0.25,0.109375 -0.28125,0.25 L 0.328125,-3.09375 c 0,0.015625 -0.03125,0.046875 -0.03125,0.046875 z m 0,0"
                   id="id-ab96068c-db6c-4745-8c40-31f73827cf12" />
              </g>
            </g>
            <g
               fill="#000000"
               fill-opacity="1"
               id="id-77b5fd50-9b49-425a-8b09-1f1d6e297579"
               transform="translate(-283.593,-137.619)">
              <g
                 transform="translate(293.843,146.72)"
                 id="g9315">
                <path
                   d="m 0.53125,-1.3125 h 6.609375 l 0.0625,-0.40625 h -6.59375 z m 0,-1.953125 h 6.609375 l 0.0625,-0.40625 h -6.59375 z m 0,0"
                   id="id-de187bf0-c69e-4b5b-95a8-4755d59bcb0a" />
              </g>
            </g>
            <g
               fill="#000000"
               fill-opacity="1"
               id="id-e5e50c44-6813-4600-9c4e-6f32a44914d1"
               transform="translate(-283.593,-137.619)">
              <g
                 transform="translate(304.134,146.72)"
                 id="g16">
                <path
                   d="m 0.875,-1.921875 c 0,1.9375 1.109375,2.046875 1.46875,2.046875 0.625,0 1.328125,-0.453125 1.625,-0.640625 L 4.109375,-0.46875 C 4.171875,-0.171875 4.25,0.125 4.6875,0.125 5,0.125 5.546875,-0.21875 5.9375,-0.453125 l -0.0625,-0.25 c -0.21875,0.078125 -0.515625,0.1875 -0.65625,0.1875 -0.359375,0 -0.390625,-0.296875 -0.390625,-1.859375 0,-0.734375 0.03125,-1.46875 0.0625,-2.1875 L 4.84375,-4.609375 4.3125,-4.296875 C 4,-4.53125 3.5625,-4.640625 3.25,-4.640625 c -2.25,0 -2.375,2.203125 -2.375,2.71875 z m 0.90625,-0.21875 c 0.015625,-1.015625 0.296875,-1.5625 0.53125,-1.78125 0.265625,-0.25 0.59375,-0.375 0.953125,-0.375 0.25,0 0.5,0.140625 0.671875,0.328125 0.15625,0.171875 0.15625,0.4375 0.15625,0.6875 v 2.296875 C 3.875,-0.828125 3.4375,-0.53125 3.046875,-0.53125 c -0.59375,0 -1.265625,-0.171875 -1.265625,-1.609375 z m 0,0"
                   id="id-0193c925-368c-4749-bd86-e4d095207a3b" />
              </g>
              <g
                 transform="translate(310.202,146.72)"
                 id="g2111">
                <path
                   d="m 0.828125,-2.5 c 0,2.421875 0.390625,3.3125 0.703125,3.75 C 1.796875,1.609375 2.21875,2 2.703125,2.03125 V 1.796875 C 2.5,1.75 2.203125,1.59375 2.03125,1.390625 1.890625,1.234375 1.34375,0.578125 1.34375,-2.5 c 0,-2.109375 0.328125,-3.0625 0.546875,-3.53125 C 2.046875,-6.375 2.375,-6.671875 2.703125,-6.75 v -0.265625 c -0.40625,0.0625 -0.84375,0.390625 -1.09375,0.734375 -0.3125,0.453125 -0.78125,1.546875 -0.78125,3.78125 z m 0,0"
                   id="id-f4056021-9ed7-419b-bdff-38c5f525bc20" />
              </g>
              <g
                 transform="translate(313.469,146.72)"
                 id="g6724">
                <path
                   d="M 0.296875,-0.453125 0.3125,-0.03125 c 0.75,-0.046875 1.46875,-0.0625 2.203125,-0.0625 1.25,0 2.5,0.046875 3.734375,0.140625 L 6.859375,-0.28125 6.875,-0.4375 C 5.953125,-2.21875 5.109375,-4.21875 4.203125,-6.9375 L 3.625,-6.6875 Z M 1,-0.640625 c 0.796875,-1.6875 1.609375,-3.25 2.546875,-4.875 H 3.65625 c 0,0 1.59375,3.984375 2,4.921875 L 5.609375,-0.5 c -1.171875,0 -2.34375,-0.03125 -3.515625,-0.03125 -0.359375,0 -0.703125,0 -1.0625,0.015625 z m 0,0"
                   id="id-3fb176d7-897c-45f5-bffc-8dff7dad9054" />
              </g>
              <g
                 transform="translate(320.573,146.72)"
                 id="g5902">
                <path
                   d="m 0.125,0.078125 0.140625,0.1875 h 0.0625 c 0.15625,-0.21875 0.375,-0.421875 0.625,-0.421875 l 1.15625,0.109375 c 0.4375,0.046875 1.1875,0.125 1.296875,0.125 0.625,0 0.828125,-0.390625 0.953125,-0.671875 L 4.78125,-1.390625 4.5625,-1.5 c -0.140625,0.1875 -0.28125,0.375 -0.453125,0.546875 -0.125,0.125 -0.40625,0.21875 -0.640625,0.21875 -0.09375,0 -1.0625,-0.015625 -2.046875,-0.125 L 1.375,-0.9375 C 2.359375,-2.265625 3.4375,-3.59375 4.265625,-4.46875 L 4.125,-4.609375 H 4.0625 c -0.203125,0.171875 -0.4375,0.3125 -0.71875,0.3125 -0.515625,0 -1.296875,-0.3125 -1.75,-0.3125 -0.359375,0 -0.4375,0.125 -0.609375,0.40625 l -0.5,0.890625 0.1875,0.125 c 0.3125,-0.421875 0.53125,-0.703125 0.890625,-0.703125 0.34375,0 0.875,0.1875 1.203125,0.1875 0.109375,0 0.1875,0 0.296875,-0.015625 z m 0,0"
                   id="id-beb8242a-685c-48e2-85df-54652205cb64" />
              </g>
              <g
                 transform="translate(325.255,146.72)"
                 id="g3054">
                <path
                   d="M 0.5625,1.796875 V 2.03125 C 1.046875,1.96875 1.5,1.640625 1.78125,1.265625 2.078125,0.84375 2.46875,-0.078125 2.46875,-2.5 2.46875,-5 1.9375,-5.828125 1.640625,-6.28125 1.390625,-6.625 0.984375,-6.953125 0.5625,-7.015625 V -6.75 c 0.328125,0.09375 0.640625,0.375 0.796875,0.71875 C 1.578125,-5.5625 1.9375,-4.8125 1.9375,-2.5 1.9375,0.984375 1.421875,1.234375 1.28125,1.390625 1.109375,1.59375 0.765625,1.75 0.5625,1.796875 Z m 0,0"
                   id="id-f67eb3d8-ea57-4fe4-ade4-bc8d31c37562" />
              </g>
            </g>
          </g>
          <g
             transform="translate(-10.05281,-8.26562)"
             ns1:version="1.10.2"
             ns1:texconverter="lualatex"
             ns1:pdfconverter="inkscape"
             ns1:text="$$a=a(0)$$"
             ns1:preamble="/home/hiro/Documents/org/roam/writeup/reworked_notes_on_the_io_theory/graphics/default_packages.tex"
             ns1:scale="0.9318245794777794"
             ns1:alignment="middle center"
             ns1:stroke-to-path="0"
             ns1:inkscapeversion="1.3.2"
             id="g7189"
             ns1:jacobian_sqrt="1.0">
            <defs
               id="id-5623c242-cab8-457a-8d54-fc47f762199f">
              <g
                 id="id-8855d689-31ed-43d4-a286-3c335e8746eb">
                <g
                   id="id-7a677eed-52fd-4f07-bac4-d3c9356252e8">
                  <path
                     d="m 0.875,-1.921875 c 0,1.9375 1.109375,2.046875 1.46875,2.046875 0.625,0 1.328125,-0.453125 1.625,-0.640625 L 4.109375,-0.46875 C 4.171875,-0.171875 4.25,0.125 4.6875,0.125 5,0.125 5.546875,-0.21875 5.9375,-0.453125 l -0.0625,-0.25 c -0.21875,0.078125 -0.515625,0.1875 -0.65625,0.1875 -0.359375,0 -0.390625,-0.296875 -0.390625,-1.859375 0,-0.734375 0.03125,-1.46875 0.0625,-2.1875 L 4.84375,-4.609375 4.3125,-4.296875 C 4,-4.53125 3.5625,-4.640625 3.25,-4.640625 c -2.25,0 -2.375,2.203125 -2.375,2.71875 z m 0.90625,-0.21875 c 0.015625,-1.015625 0.296875,-1.5625 0.53125,-1.78125 0.265625,-0.25 0.59375,-0.375 0.953125,-0.375 0.25,0 0.5,0.140625 0.671875,0.328125 0.15625,0.171875 0.15625,0.4375 0.15625,0.6875 v 2.296875 C 3.875,-0.828125 3.4375,-0.53125 3.046875,-0.53125 c -0.59375,0 -1.265625,-0.171875 -1.265625,-1.609375 z m 0,0"
                     id="id-7f857af2-dc30-4f46-a6b2-6000611bc357" />
                </g>
                <g
                   id="id-9f223ad3-2739-460c-890e-3ddad5edd2d3">
                  <path
                     d="m 0.53125,-1.3125 h 6.609375 l 0.0625,-0.40625 h -6.59375 z m 0,-1.953125 h 6.609375 l 0.0625,-0.40625 h -6.59375 z m 0,0"
                     id="id-e63c96b4-6d1c-4102-88df-7f806603fe20" />
                </g>
                <g
                   id="id-58546a64-833f-4f8f-a3dd-b04e020a5ed3">
                  <path
                     d="m 0.828125,-2.5 c 0,2.421875 0.390625,3.3125 0.703125,3.75 C 1.796875,1.609375 2.21875,2 2.703125,2.03125 V 1.796875 C 2.5,1.75 2.203125,1.59375 2.03125,1.390625 1.890625,1.234375 1.34375,0.578125 1.34375,-2.5 c 0,-2.109375 0.328125,-3.0625 0.546875,-3.53125 C 2.046875,-6.375 2.375,-6.671875 2.703125,-6.75 v -0.265625 c -0.40625,0.0625 -0.84375,0.390625 -1.09375,0.734375 -0.3125,0.453125 -0.78125,1.546875 -0.78125,3.78125 z m 0,0"
                     id="id-7f1f12cc-ea47-4203-822a-0091d446a0d5" />
                </g>
                <g
                   id="id-ded05222-2ab3-4754-bc7e-7206e7734e39">
                  <path
                     d="m 0.34375,-3.015625 c 0,2.03125 0.71875,3.15625 1.71875,3.15625 1.5625,0 2.515625,-1.640625 2.515625,-3.6875 0,-1.859375 -0.84375,-2.9375 -1.6875,-3.46875 -0.4375,0.171875 -0.921875,0.421875 -1.25,0.75 -0.859375,0.84375 -1.296875,2.046875 -1.296875,3.25 z M 1,-3.703125 c 0,-0.84375 0.359375,-2.0625 1.328125,-2.671875 0.640625,0.265625 1.640625,1.71875 1.640625,3.53125 0,0.875 -0.1875,2.328125 -1.453125,2.328125 C 1.984375,-0.515625 1,-1.234375 1,-3.703125 Z m 0,0"
                     id="id-e3abe953-8981-4958-861f-a0dcaf365e13" />
                </g>
                <g
                   id="id-741d27c5-0338-450c-b358-84ea1b84f353">
                  <path
                     d="M 0.5625,1.796875 V 2.03125 C 1.046875,1.96875 1.5,1.640625 1.78125,1.265625 2.078125,0.84375 2.46875,-0.078125 2.46875,-2.5 2.46875,-5 1.9375,-5.828125 1.640625,-6.28125 1.390625,-6.625 0.984375,-6.953125 0.5625,-7.015625 V -6.75 c 0.328125,0.09375 0.640625,0.375 0.796875,0.71875 C 1.578125,-5.5625 1.9375,-4.8125 1.9375,-2.5 1.9375,0.984375 1.421875,1.234375 1.28125,1.390625 1.109375,1.59375 0.765625,1.75 0.5625,1.796875 Z m 0,0"
                     id="id-ec55b1e7-e0cd-4843-bcd8-954e73084a2e" />
                </g>
              </g>
            </defs>
            <g
               fill="#000000"
               fill-opacity="1"
               id="id-5891ed03-2d49-4be8-ac98-00493f956d71"
               transform="translate(-288.145,-139.704)">
              <g
                 transform="translate(287.27,146.72)"
                 id="g3749">
                <path
                   d="m 0.875,-1.921875 c 0,1.9375 1.109375,2.046875 1.46875,2.046875 0.625,0 1.328125,-0.453125 1.625,-0.640625 L 4.109375,-0.46875 C 4.171875,-0.171875 4.25,0.125 4.6875,0.125 5,0.125 5.546875,-0.21875 5.9375,-0.453125 l -0.0625,-0.25 c -0.21875,0.078125 -0.515625,0.1875 -0.65625,0.1875 -0.359375,0 -0.390625,-0.296875 -0.390625,-1.859375 0,-0.734375 0.03125,-1.46875 0.0625,-2.1875 L 4.84375,-4.609375 4.3125,-4.296875 C 4,-4.53125 3.5625,-4.640625 3.25,-4.640625 c -2.25,0 -2.375,2.203125 -2.375,2.71875 z m 0.90625,-0.21875 c 0.015625,-1.015625 0.296875,-1.5625 0.53125,-1.78125 0.265625,-0.25 0.59375,-0.375 0.953125,-0.375 0.25,0 0.5,0.140625 0.671875,0.328125 0.15625,0.171875 0.15625,0.4375 0.15625,0.6875 v 2.296875 C 3.875,-0.828125 3.4375,-0.53125 3.046875,-0.53125 c -0.59375,0 -1.265625,-0.171875 -1.265625,-1.609375 z m 0,0"
                   id="id-2973ec17-fb4f-49dc-8622-6e4e5001b9e7" />
              </g>
            </g>
            <g
               fill="#000000"
               fill-opacity="1"
               id="id-1c59973c-2ad6-442c-a55e-e6146f9ec201"
               transform="translate(-288.145,-139.704)">
              <g
                 transform="translate(296.097,146.72)"
                 id="g3453">
                <path
                   d="m 0.53125,-1.3125 h 6.609375 l 0.0625,-0.40625 h -6.59375 z m 0,-1.953125 h 6.609375 l 0.0625,-0.40625 h -6.59375 z m 0,0"
                   id="id-f656a96b-93da-481c-838d-5d45dffbf01c" />
              </g>
            </g>
            <g
               fill="#000000"
               fill-opacity="1"
               id="id-8e353632-8693-4abf-a308-c92774d061c9"
               transform="translate(-288.145,-139.704)">
              <g
                 transform="translate(306.398,146.72)"
                 id="g392">
                <path
                   d="m 0.875,-1.921875 c 0,1.9375 1.109375,2.046875 1.46875,2.046875 0.625,0 1.328125,-0.453125 1.625,-0.640625 L 4.109375,-0.46875 C 4.171875,-0.171875 4.25,0.125 4.6875,0.125 5,0.125 5.546875,-0.21875 5.9375,-0.453125 l -0.0625,-0.25 c -0.21875,0.078125 -0.515625,0.1875 -0.65625,0.1875 -0.359375,0 -0.390625,-0.296875 -0.390625,-1.859375 0,-0.734375 0.03125,-1.46875 0.0625,-2.1875 L 4.84375,-4.609375 4.3125,-4.296875 C 4,-4.53125 3.5625,-4.640625 3.25,-4.640625 c -2.25,0 -2.375,2.203125 -2.375,2.71875 z m 0.90625,-0.21875 c 0.015625,-1.015625 0.296875,-1.5625 0.53125,-1.78125 0.265625,-0.25 0.59375,-0.375 0.953125,-0.375 0.25,0 0.5,0.140625 0.671875,0.328125 0.15625,0.171875 0.15625,0.4375 0.15625,0.6875 v 2.296875 C 3.875,-0.828125 3.4375,-0.53125 3.046875,-0.53125 c -0.59375,0 -1.265625,-0.171875 -1.265625,-1.609375 z m 0,0"
                   id="id-54d39444-57d5-4758-ba22-42b30f794187" />
              </g>
              <g
                 transform="translate(312.466,146.72)"
                 id="g9776">
                <path
                   d="m 0.828125,-2.5 c 0,2.421875 0.390625,3.3125 0.703125,3.75 C 1.796875,1.609375 2.21875,2 2.703125,2.03125 V 1.796875 C 2.5,1.75 2.203125,1.59375 2.03125,1.390625 1.890625,1.234375 1.34375,0.578125 1.34375,-2.5 c 0,-2.109375 0.328125,-3.0625 0.546875,-3.53125 C 2.046875,-6.375 2.375,-6.671875 2.703125,-6.75 v -0.265625 c -0.40625,0.0625 -0.84375,0.390625 -1.09375,0.734375 -0.3125,0.453125 -0.78125,1.546875 -0.78125,3.78125 z m 0,0"
                   id="id-e6337b5c-5486-4780-9416-c7e01e521b5c" />
              </g>
              <g
                 transform="translate(315.733,146.72)"
                 id="g1038">
                <path
                   d="m 0.34375,-3.015625 c 0,2.03125 0.71875,3.15625 1.71875,3.15625 1.5625,0 2.515625,-1.640625 2.515625,-3.6875 0,-1.859375 -0.84375,-2.9375 -1.6875,-3.46875 -0.4375,0.171875 -0.921875,0.421875 -1.25,0.75 -0.859375,0.84375 -1.296875,2.046875 -1.296875,3.25 z M 1,-3.703125 c 0,-0.84375 0.359375,-2.0625 1.328125,-2.671875 0.640625,0.265625 1.640625,1.71875 1.640625,3.53125 0,0.875 -0.1875,2.328125 -1.453125,2.328125 C 1.984375,-0.515625 1,-1.234375 1,-3.703125 Z m 0,0"
                   id="id-62087f3f-c8b2-4f89-8c89-a76fca7cd5fc" />
              </g>
              <g
                 transform="translate(320.705,146.72)"
                 id="g6899">
                <path
                   d="M 0.5625,1.796875 V 2.03125 C 1.046875,1.96875 1.5,1.640625 1.78125,1.265625 2.078125,0.84375 2.46875,-0.078125 2.46875,-2.5 2.46875,-5 1.9375,-5.828125 1.640625,-6.28125 1.390625,-6.625 0.984375,-6.953125 0.5625,-7.015625 V -6.75 c 0.328125,0.09375 0.640625,0.375 0.796875,0.71875 C 1.578125,-5.5625 1.9375,-4.8125 1.9375,-2.5 1.9375,0.984375 1.421875,1.234375 1.28125,1.390625 1.109375,1.59375 0.765625,1.75 0.5625,1.796875 Z m 0,0"
                   id="id-32ec5b0c-6e37-4f76-82f9-7fd5264b903f" />
              </g>
            </g>
          </g>
          <g
             transform="translate(-10.14801,44.5986)"
             ns1:version="1.10.2"
             ns1:texconverter="lualatex"
             ns1:pdfconverter="inkscape"
             ns1:text="$$b=b(0)$$"
             ns1:preamble="/home/hiro/Documents/org/roam/writeup/reworked_notes_on_the_io_theory/graphics/default_packages.tex"
             ns1:scale="0.9318245794777794"
             ns1:alignment="middle center"
             ns1:stroke-to-path="0"
             ns1:inkscapeversion="1.3.2"
             id="g33"
             ns1:jacobian_sqrt="1.0">
            <defs
               id="id-e1804b9c-fc17-40e4-9f17-4be7b1d32c26">
              <g
                 id="id-4912a9b5-bb17-4490-9f05-2251175cff31">
                <g
                   id="id-b736154e-900f-4ac7-be35-df45b898834b">
                  <path
                     d="m 0.265625,-6.375 0.703125,0.078125 c 0.171875,0.03125 0.234375,0.171875 0.234375,0.328125 v 4.75 c 0,0.71875 0.359375,1.3125 1.171875,1.3125 0.84375,0 1.609375,-0.421875 2.1875,-1.015625 0.21875,-0.234375 0.65625,-0.9375 0.65625,-2.03125 0,-1.109375 -0.546875,-1.71875 -1.40625,-1.71875 -0.6875,0 -1.265625,0.34375 -1.78125,0.75 l -0.09375,-0.0625 c 0,-1.125 0.046875,-1.84375 0.140625,-2.765625 l -0.0625,-0.0625 -1.6875,0.171875 -0.0625,0.046875 z M 1.9375,-2.28125 c 0,-0.390625 0.015625,-0.84375 0.03125,-1.171875 0.390625,-0.34375 0.84375,-0.59375 1.375,-0.59375 0.640625,0 1.046875,0.65625 1.046875,1.78125 0,1.421875 -0.796875,1.890625 -1.46875,1.890625 C 2.078125,-0.375 1.9375,-1 1.9375,-2.28125 Z m 0,0"
                     id="id-1f1a2c7a-0cde-48b0-84c6-e41c65260c43" />
                </g>
                <g
                   id="id-931ebe17-6c31-423a-80c6-bbd5bf1fbd89">
                  <path
                     d="m 0.53125,-1.3125 h 6.609375 l 0.0625,-0.40625 h -6.59375 z m 0,-1.953125 h 6.609375 l 0.0625,-0.40625 h -6.59375 z m 0,0"
                     id="id-40bf9a22-32d2-4953-91aa-01df2589a9e9" />
                </g>
                <g
                   id="id-8f488780-74be-409e-9ce7-5e0093f637fd">
                  <path
                     d="m 0.828125,-2.5 c 0,2.421875 0.390625,3.3125 0.703125,3.75 C 1.796875,1.609375 2.21875,2 2.703125,2.03125 V 1.796875 C 2.5,1.75 2.203125,1.59375 2.03125,1.390625 1.890625,1.234375 1.34375,0.578125 1.34375,-2.5 c 0,-2.109375 0.328125,-3.0625 0.546875,-3.53125 C 2.046875,-6.375 2.375,-6.671875 2.703125,-6.75 v -0.265625 c -0.40625,0.0625 -0.84375,0.390625 -1.09375,0.734375 -0.3125,0.453125 -0.78125,1.546875 -0.78125,3.78125 z m 0,0"
                     id="id-d1c906a2-ddb4-48af-b3a2-02f40317ec1c" />
                </g>
                <g
                   id="id-f3c7ef5f-ac5a-43de-b32a-dd46dcbfff7a">
                  <path
                     d="m 0.34375,-3.015625 c 0,2.03125 0.71875,3.15625 1.71875,3.15625 1.5625,0 2.515625,-1.640625 2.515625,-3.6875 0,-1.859375 -0.84375,-2.9375 -1.6875,-3.46875 -0.4375,0.171875 -0.921875,0.421875 -1.25,0.75 -0.859375,0.84375 -1.296875,2.046875 -1.296875,3.25 z M 1,-3.703125 c 0,-0.84375 0.359375,-2.0625 1.328125,-2.671875 0.640625,0.265625 1.640625,1.71875 1.640625,3.53125 0,0.875 -0.1875,2.328125 -1.453125,2.328125 C 1.984375,-0.515625 1,-1.234375 1,-3.703125 Z m 0,0"
                     id="id-5a0dc718-2b92-48ae-9768-e70c561ebde1" />
                </g>
                <g
                   id="id-ba2ff393-ef6a-4fda-b14e-edd1a006aca4">
                  <path
                     d="M 0.5625,1.796875 V 2.03125 C 1.046875,1.96875 1.5,1.640625 1.78125,1.265625 2.078125,0.84375 2.46875,-0.078125 2.46875,-2.5 2.46875,-5 1.9375,-5.828125 1.640625,-6.28125 1.390625,-6.625 0.984375,-6.953125 0.5625,-7.015625 V -6.75 c 0.328125,0.09375 0.640625,0.375 0.796875,0.71875 C 1.578125,-5.5625 1.9375,-4.8125 1.9375,-2.5 1.9375,0.984375 1.421875,1.234375 1.28125,1.390625 1.109375,1.59375 0.765625,1.75 0.5625,1.796875 Z m 0,0"
                     id="id-ece12f47-553b-461f-a3a9-b1642c2ec980" />
                </g>
              </g>
            </defs>
            <g
               fill="#000000"
               fill-opacity="1"
               id="id-885e6f90-24c5-4bf2-b2ff-3d19f03743e1"
               transform="translate(-287.745,-139.704)">
              <g
                 transform="translate(287.479,146.72)"
                 id="g2627">
                <path
                   d="m 0.265625,-6.375 0.703125,0.078125 c 0.171875,0.03125 0.234375,0.171875 0.234375,0.328125 v 4.75 c 0,0.71875 0.359375,1.3125 1.171875,1.3125 0.84375,0 1.609375,-0.421875 2.1875,-1.015625 0.21875,-0.234375 0.65625,-0.9375 0.65625,-2.03125 0,-1.109375 -0.546875,-1.71875 -1.40625,-1.71875 -0.6875,0 -1.265625,0.34375 -1.78125,0.75 l -0.09375,-0.0625 c 0,-1.125 0.046875,-1.84375 0.140625,-2.765625 l -0.0625,-0.0625 -1.6875,0.171875 -0.0625,0.046875 z M 1.9375,-2.28125 c 0,-0.390625 0.015625,-0.84375 0.03125,-1.171875 0.390625,-0.34375 0.84375,-0.59375 1.375,-0.59375 0.640625,0 1.046875,0.65625 1.046875,1.78125 0,1.421875 -0.796875,1.890625 -1.46875,1.890625 C 2.078125,-0.375 1.9375,-1 1.9375,-2.28125 Z m 0,0"
                   id="id-4d6cb0a2-b701-424b-be31-855a747a0e62" />
              </g>
            </g>
            <g
               fill="#000000"
               fill-opacity="1"
               id="id-9e81102c-4208-4f63-b43b-e499aa783004"
               transform="translate(-287.745,-139.704)">
              <g
                 transform="translate(296.097,146.72)"
                 id="g5108">
                <path
                   d="m 0.53125,-1.3125 h 6.609375 l 0.0625,-0.40625 h -6.59375 z m 0,-1.953125 h 6.609375 l 0.0625,-0.40625 h -6.59375 z m 0,0"
                   id="id-44bc1f5e-01dd-4199-8a43-5cc8f5ea09fd" />
              </g>
            </g>
            <g
               fill="#000000"
               fill-opacity="1"
               id="id-9774981d-eaa0-45b4-a4c2-77efcc96bcb4"
               transform="translate(-287.745,-139.704)">
              <g
                 transform="translate(306.398,146.72)"
                 id="g927">
                <path
                   d="m 0.265625,-6.375 0.703125,0.078125 c 0.171875,0.03125 0.234375,0.171875 0.234375,0.328125 v 4.75 c 0,0.71875 0.359375,1.3125 1.171875,1.3125 0.84375,0 1.609375,-0.421875 2.1875,-1.015625 0.21875,-0.234375 0.65625,-0.9375 0.65625,-2.03125 0,-1.109375 -0.546875,-1.71875 -1.40625,-1.71875 -0.6875,0 -1.265625,0.34375 -1.78125,0.75 l -0.09375,-0.0625 c 0,-1.125 0.046875,-1.84375 0.140625,-2.765625 l -0.0625,-0.0625 -1.6875,0.171875 -0.0625,0.046875 z M 1.9375,-2.28125 c 0,-0.390625 0.015625,-0.84375 0.03125,-1.171875 0.390625,-0.34375 0.84375,-0.59375 1.375,-0.59375 0.640625,0 1.046875,0.65625 1.046875,1.78125 0,1.421875 -0.796875,1.890625 -1.46875,1.890625 C 2.078125,-0.375 1.9375,-1 1.9375,-2.28125 Z m 0,0"
                   id="id-0bac492b-7116-46b8-9725-f108a86691c1" />
              </g>
              <g
                 transform="translate(312.256,146.72)"
                 id="g632">
                <path
                   d="m 0.828125,-2.5 c 0,2.421875 0.390625,3.3125 0.703125,3.75 C 1.796875,1.609375 2.21875,2 2.703125,2.03125 V 1.796875 C 2.5,1.75 2.203125,1.59375 2.03125,1.390625 1.890625,1.234375 1.34375,0.578125 1.34375,-2.5 c 0,-2.109375 0.328125,-3.0625 0.546875,-3.53125 C 2.046875,-6.375 2.375,-6.671875 2.703125,-6.75 v -0.265625 c -0.40625,0.0625 -0.84375,0.390625 -1.09375,0.734375 -0.3125,0.453125 -0.78125,1.546875 -0.78125,3.78125 z m 0,0"
                   id="id-2c2355ef-4b22-4ed7-88d1-fa62214867c0" />
              </g>
              <g
                 transform="translate(315.524,146.72)"
                 id="g4535">
                <path
                   d="m 0.34375,-3.015625 c 0,2.03125 0.71875,3.15625 1.71875,3.15625 1.5625,0 2.515625,-1.640625 2.515625,-3.6875 0,-1.859375 -0.84375,-2.9375 -1.6875,-3.46875 -0.4375,0.171875 -0.921875,0.421875 -1.25,0.75 -0.859375,0.84375 -1.296875,2.046875 -1.296875,3.25 z M 1,-3.703125 c 0,-0.84375 0.359375,-2.0625 1.328125,-2.671875 0.640625,0.265625 1.640625,1.71875 1.640625,3.53125 0,0.875 -0.1875,2.328125 -1.453125,2.328125 C 1.984375,-0.515625 1,-1.234375 1,-3.703125 Z m 0,0"
                   id="id-8b78dc6b-6689-4d7e-b625-f630f6b5b1bf" />
              </g>
              <g
                 transform="translate(320.495,146.72)"
                 id="g4568">
                <path
                   d="M 0.5625,1.796875 V 2.03125 C 1.046875,1.96875 1.5,1.640625 1.78125,1.265625 2.078125,0.84375 2.46875,-0.078125 2.46875,-2.5 2.46875,-5 1.9375,-5.828125 1.640625,-6.28125 1.390625,-6.625 0.984375,-6.953125 0.5625,-7.015625 V -6.75 c 0.328125,0.09375 0.640625,0.375 0.796875,0.71875 C 1.578125,-5.5625 1.9375,-4.8125 1.9375,-2.5 1.9375,0.984375 1.421875,1.234375 1.28125,1.390625 1.109375,1.59375 0.765625,1.75 0.5625,1.796875 Z m 0,0"
                   id="id-9714eb2c-ef39-494e-8d6e-ebb68231ef03" />
              </g>
            </g>
          </g>
          <g
             transform="translate(227.294,43.5561)"
             ns1:version="1.10.2"
             ns1:texconverter="lualatex"
             ns1:pdfconverter="inkscape"
             ns1:text="$$b'=b(\\Delta z)$$"
             ns1:preamble="/home/hiro/Documents/org/roam/writeup/reworked_notes_on_the_io_theory/graphics/default_packages.tex"
             ns1:scale="0.9318245794777794"
             ns1:alignment="middle center"
             ns1:stroke-to-path="0"
             ns1:inkscapeversion="1.3.2"
             id="g64"
             ns1:jacobian_sqrt="1.0">
            <defs
               id="id-2f90b7e4-d6d2-4fa3-a7b4-2057f0ea523f">
              <g
                 id="id-807bd8bf-9d2a-44a3-b55d-98f95051d8dd">
                <g
                   id="id-a27a204f-39fc-4ddf-a667-2ad133bbc52d">
                  <path
                     d="m 0.265625,-6.375 0.703125,0.078125 c 0.171875,0.03125 0.234375,0.171875 0.234375,0.328125 v 4.75 c 0,0.71875 0.359375,1.3125 1.171875,1.3125 0.84375,0 1.609375,-0.421875 2.1875,-1.015625 0.21875,-0.234375 0.65625,-0.9375 0.65625,-2.03125 0,-1.109375 -0.546875,-1.71875 -1.40625,-1.71875 -0.6875,0 -1.265625,0.34375 -1.78125,0.75 l -0.09375,-0.0625 c 0,-1.125 0.046875,-1.84375 0.140625,-2.765625 l -0.0625,-0.0625 -1.6875,0.171875 -0.0625,0.046875 z M 1.9375,-2.28125 c 0,-0.390625 0.015625,-0.84375 0.03125,-1.171875 0.390625,-0.34375 0.84375,-0.59375 1.375,-0.59375 0.640625,0 1.046875,0.65625 1.046875,1.78125 0,1.421875 -0.796875,1.890625 -1.46875,1.890625 C 2.078125,-0.375 1.9375,-1 1.9375,-2.28125 Z m 0,0"
                     id="id-3deae9e5-d43f-49c4-9c52-6b2f5e3e1e55" />
                </g>
                <g
                   id="id-7b60e565-5ecc-4da3-8149-cf5b7b2376b1">
                  <path
                     d="m 0.53125,-1.3125 h 6.609375 l 0.0625,-0.40625 h -6.59375 z m 0,-1.953125 h 6.609375 l 0.0625,-0.40625 h -6.59375 z m 0,0"
                     id="id-7cd8baab-f37f-49d5-ad1f-29543cf36e0d" />
                </g>
                <g
                   id="id-8b92ec40-684e-4d1c-bba6-bfe4bce2ed60">
                  <path
                     d="m 0.828125,-2.5 c 0,2.421875 0.390625,3.3125 0.703125,3.75 C 1.796875,1.609375 2.21875,2 2.703125,2.03125 V 1.796875 C 2.5,1.75 2.203125,1.59375 2.03125,1.390625 1.890625,1.234375 1.34375,0.578125 1.34375,-2.5 c 0,-2.109375 0.328125,-3.0625 0.546875,-3.53125 C 2.046875,-6.375 2.375,-6.671875 2.703125,-6.75 v -0.265625 c -0.40625,0.0625 -0.84375,0.390625 -1.09375,0.734375 -0.3125,0.453125 -0.78125,1.546875 -0.78125,3.78125 z m 0,0"
                     id="id-3a437c70-8fc9-4589-b687-2ac4ebb4dad1" />
                </g>
                <g
                   id="id-49f90ba2-618e-4b7e-87a8-8cb13e56b8aa">
                  <path
                     d="M 0.296875,-0.453125 0.3125,-0.03125 c 0.75,-0.046875 1.46875,-0.0625 2.203125,-0.0625 1.25,0 2.5,0.046875 3.734375,0.140625 L 6.859375,-0.28125 6.875,-0.4375 C 5.953125,-2.21875 5.109375,-4.21875 4.203125,-6.9375 L 3.625,-6.6875 Z M 1,-0.640625 c 0.796875,-1.6875 1.609375,-3.25 2.546875,-4.875 H 3.65625 c 0,0 1.59375,3.984375 2,4.921875 L 5.609375,-0.5 c -1.171875,0 -2.34375,-0.03125 -3.515625,-0.03125 -0.359375,0 -0.703125,0 -1.0625,0.015625 z m 0,0"
                     id="id-74447182-8bb9-47a4-86bb-7c226a121965" />
                </g>
                <g
                   id="id-da40ed17-7c4c-4773-9e8b-eb22f1c6db81">
                  <path
                     d="m 0.125,0.078125 0.140625,0.1875 h 0.0625 c 0.15625,-0.21875 0.375,-0.421875 0.625,-0.421875 l 1.15625,0.109375 c 0.4375,0.046875 1.1875,0.125 1.296875,0.125 0.625,0 0.828125,-0.390625 0.953125,-0.671875 L 4.78125,-1.390625 4.5625,-1.5 c -0.140625,0.1875 -0.28125,0.375 -0.453125,0.546875 -0.125,0.125 -0.40625,0.21875 -0.640625,0.21875 -0.09375,0 -1.0625,-0.015625 -2.046875,-0.125 L 1.375,-0.9375 C 2.359375,-2.265625 3.4375,-3.59375 4.265625,-4.46875 L 4.125,-4.609375 H 4.0625 c -0.203125,0.171875 -0.4375,0.3125 -0.71875,0.3125 -0.515625,0 -1.296875,-0.3125 -1.75,-0.3125 -0.359375,0 -0.4375,0.125 -0.609375,0.40625 l -0.5,0.890625 0.1875,0.125 c 0.3125,-0.421875 0.53125,-0.703125 0.890625,-0.703125 0.34375,0 0.875,0.1875 1.203125,0.1875 0.109375,0 0.1875,0 0.296875,-0.015625 z m 0,0"
                     id="id-16305d86-013c-46b6-acaa-d40ef6c528b1" />
                </g>
                <g
                   id="id-cc91e053-6d01-4022-a586-a77d035200c2">
                  <path
                     d="M 0.5625,1.796875 V 2.03125 C 1.046875,1.96875 1.5,1.640625 1.78125,1.265625 2.078125,0.84375 2.46875,-0.078125 2.46875,-2.5 2.46875,-5 1.9375,-5.828125 1.640625,-6.28125 1.390625,-6.625 0.984375,-6.953125 0.5625,-7.015625 V -6.75 c 0.328125,0.09375 0.640625,0.375 0.796875,0.71875 C 1.578125,-5.5625 1.9375,-4.8125 1.9375,-2.5 1.9375,0.984375 1.421875,1.234375 1.28125,1.390625 1.109375,1.59375 0.765625,1.75 0.5625,1.796875 Z m 0,0"
                     id="id-03d0173b-e2e0-4bd0-8faf-093553fab0f3" />
                </g>
                <g
                   id="id-0162e62c-e7a7-49d0-9018-fac8ea0ae09d">
                  <path
                     d="m 0.296875,-3.03125 c 0,0.078125 0.15625,0.125 0.203125,0.125 0.046875,0 0.078125,-0.046875 0.09375,-0.09375 C 1.5,-5.125 1.5,-5.125 1.5,-5.1875 c 0,-0.171875 -0.140625,-0.296875 -0.3125,-0.296875 -0.15625,0 -0.25,0.109375 -0.28125,0.25 L 0.328125,-3.09375 c 0,0.015625 -0.03125,0.046875 -0.03125,0.046875 z m 0,0"
                     id="id-14f99a9b-1076-4824-8718-90e8eb7cd603" />
                </g>
              </g>
            </defs>
            <g
               fill="#000000"
               fill-opacity="1"
               id="id-9d333acd-745f-4591-b64a-78a76f4a6630"
               transform="translate(-283.193,-137.619)">
              <g
                 transform="translate(282.927,146.72)"
                 id="g6807">
                <path
                   d="m 0.265625,-6.375 0.703125,0.078125 c 0.171875,0.03125 0.234375,0.171875 0.234375,0.328125 v 4.75 c 0,0.71875 0.359375,1.3125 1.171875,1.3125 0.84375,0 1.609375,-0.421875 2.1875,-1.015625 0.21875,-0.234375 0.65625,-0.9375 0.65625,-2.03125 0,-1.109375 -0.546875,-1.71875 -1.40625,-1.71875 -0.6875,0 -1.265625,0.34375 -1.78125,0.75 l -0.09375,-0.0625 c 0,-1.125 0.046875,-1.84375 0.140625,-2.765625 l -0.0625,-0.0625 -1.6875,0.171875 -0.0625,0.046875 z M 1.9375,-2.28125 c 0,-0.390625 0.015625,-0.84375 0.03125,-1.171875 0.390625,-0.34375 0.84375,-0.59375 1.375,-0.59375 0.640625,0 1.046875,0.65625 1.046875,1.78125 0,1.421875 -0.796875,1.890625 -1.46875,1.890625 C 2.078125,-0.375 1.9375,-1 1.9375,-2.28125 Z m 0,0"
                   id="id-8d96b2fd-ffea-4f4b-8730-3831c11e0abe" />
              </g>
            </g>
            <g
               fill="#000000"
               fill-opacity="1"
               id="id-438385a0-c760-4be2-867c-3756036016b1"
               transform="translate(-283.193,-137.619)">
              <g
                 transform="translate(288.785,143.103)"
                 id="g7099">
                <path
                   d="m 0.296875,-3.03125 c 0,0.078125 0.15625,0.125 0.203125,0.125 0.046875,0 0.078125,-0.046875 0.09375,-0.09375 C 1.5,-5.125 1.5,-5.125 1.5,-5.1875 c 0,-0.171875 -0.140625,-0.296875 -0.3125,-0.296875 -0.15625,0 -0.25,0.109375 -0.28125,0.25 L 0.328125,-3.09375 c 0,0.015625 -0.03125,0.046875 -0.03125,0.046875 z m 0,0"
                   id="id-38527676-4e65-4541-90ea-ca2ab37db8e1" />
              </g>
            </g>
            <g
               fill="#000000"
               fill-opacity="1"
               id="id-5ef1cbda-3e56-4d65-8945-ad43401c8bd5"
               transform="translate(-283.193,-137.619)">
              <g
                 transform="translate(293.843,146.72)"
                 id="g8470">
                <path
                   d="m 0.53125,-1.3125 h 6.609375 l 0.0625,-0.40625 h -6.59375 z m 0,-1.953125 h 6.609375 l 0.0625,-0.40625 h -6.59375 z m 0,0"
                   id="id-a4ba6ff6-8ce1-45b2-9b94-527fcfd79b51" />
              </g>
            </g>
            <g
               fill="#000000"
               fill-opacity="1"
               id="id-fd40872d-5d83-4cd3-bd06-008176950b94"
               transform="translate(-283.193,-137.619)">
              <g
                 transform="translate(304.134,146.72)"
                 id="g4204">
                <path
                   d="m 0.265625,-6.375 0.703125,0.078125 c 0.171875,0.03125 0.234375,0.171875 0.234375,0.328125 v 4.75 c 0,0.71875 0.359375,1.3125 1.171875,1.3125 0.84375,0 1.609375,-0.421875 2.1875,-1.015625 0.21875,-0.234375 0.65625,-0.9375 0.65625,-2.03125 0,-1.109375 -0.546875,-1.71875 -1.40625,-1.71875 -0.6875,0 -1.265625,0.34375 -1.78125,0.75 l -0.09375,-0.0625 c 0,-1.125 0.046875,-1.84375 0.140625,-2.765625 l -0.0625,-0.0625 -1.6875,0.171875 -0.0625,0.046875 z M 1.9375,-2.28125 c 0,-0.390625 0.015625,-0.84375 0.03125,-1.171875 0.390625,-0.34375 0.84375,-0.59375 1.375,-0.59375 0.640625,0 1.046875,0.65625 1.046875,1.78125 0,1.421875 -0.796875,1.890625 -1.46875,1.890625 C 2.078125,-0.375 1.9375,-1 1.9375,-2.28125 Z m 0,0"
                   id="id-f6084748-0613-4f6e-bde3-96230337389b" />
              </g>
              <g
                 transform="translate(309.992,146.72)"
                 id="g1784">
                <path
                   d="m 0.828125,-2.5 c 0,2.421875 0.390625,3.3125 0.703125,3.75 C 1.796875,1.609375 2.21875,2 2.703125,2.03125 V 1.796875 C 2.5,1.75 2.203125,1.59375 2.03125,1.390625 1.890625,1.234375 1.34375,0.578125 1.34375,-2.5 c 0,-2.109375 0.328125,-3.0625 0.546875,-3.53125 C 2.046875,-6.375 2.375,-6.671875 2.703125,-6.75 v -0.265625 c -0.40625,0.0625 -0.84375,0.390625 -1.09375,0.734375 -0.3125,0.453125 -0.78125,1.546875 -0.78125,3.78125 z m 0,0"
                   id="id-0048a027-aadc-4b0b-9a00-a6b384fbeecf" />
              </g>
              <g
                 transform="translate(313.26,146.72)"
                 id="g3285">
                <path
                   d="M 0.296875,-0.453125 0.3125,-0.03125 c 0.75,-0.046875 1.46875,-0.0625 2.203125,-0.0625 1.25,0 2.5,0.046875 3.734375,0.140625 L 6.859375,-0.28125 6.875,-0.4375 C 5.953125,-2.21875 5.109375,-4.21875 4.203125,-6.9375 L 3.625,-6.6875 Z M 1,-0.640625 c 0.796875,-1.6875 1.609375,-3.25 2.546875,-4.875 H 3.65625 c 0,0 1.59375,3.984375 2,4.921875 L 5.609375,-0.5 c -1.171875,0 -2.34375,-0.03125 -3.515625,-0.03125 -0.359375,0 -0.703125,0 -1.0625,0.015625 z m 0,0"
                   id="id-2d72ffc6-e329-4719-8c92-4d25810c3d25" />
              </g>
              <g
                 transform="translate(320.364,146.72)"
                 id="g5508">
                <path
                   d="m 0.125,0.078125 0.140625,0.1875 h 0.0625 c 0.15625,-0.21875 0.375,-0.421875 0.625,-0.421875 l 1.15625,0.109375 c 0.4375,0.046875 1.1875,0.125 1.296875,0.125 0.625,0 0.828125,-0.390625 0.953125,-0.671875 L 4.78125,-1.390625 4.5625,-1.5 c -0.140625,0.1875 -0.28125,0.375 -0.453125,0.546875 -0.125,0.125 -0.40625,0.21875 -0.640625,0.21875 -0.09375,0 -1.0625,-0.015625 -2.046875,-0.125 L 1.375,-0.9375 C 2.359375,-2.265625 3.4375,-3.59375 4.265625,-4.46875 L 4.125,-4.609375 H 4.0625 c -0.203125,0.171875 -0.4375,0.3125 -0.71875,0.3125 -0.515625,0 -1.296875,-0.3125 -1.75,-0.3125 -0.359375,0 -0.4375,0.125 -0.609375,0.40625 l -0.5,0.890625 0.1875,0.125 c 0.3125,-0.421875 0.53125,-0.703125 0.890625,-0.703125 0.34375,0 0.875,0.1875 1.203125,0.1875 0.109375,0 0.1875,0 0.296875,-0.015625 z m 0,0"
                   id="id-caae067c-f769-4dfd-9ed4-39df935f0a2c" />
              </g>
              <g
                 transform="translate(325.046,146.72)"
                 id="g9843">
                <path
                   d="M 0.5625,1.796875 V 2.03125 C 1.046875,1.96875 1.5,1.640625 1.78125,1.265625 2.078125,0.84375 2.46875,-0.078125 2.46875,-2.5 2.46875,-5 1.9375,-5.828125 1.640625,-6.28125 1.390625,-6.625 0.984375,-6.953125 0.5625,-7.015625 V -6.75 c 0.328125,0.09375 0.640625,0.375 0.796875,0.71875 C 1.578125,-5.5625 1.9375,-4.8125 1.9375,-2.5 1.9375,0.984375 1.421875,1.234375 1.28125,1.390625 1.109375,1.59375 0.765625,1.75 0.5625,1.796875 Z m 0,0"
                   id="id-83c8b86b-9a0e-458c-9dba-acc47c7ef5a3" />
              </g>
            </g>
          </g>
        </g>
      </g>
    </g>
    <g
       id="g4"
       style="fill:#8d8d8d;fill-opacity:1">
      <g
         transform="matrix(0.328727,0,0,0.328727,70.424867,5.3591784)"
         ns1:version="1.10.2"
         ns1:texconverter="lualatex"
         ns1:pdfconverter="inkscape"
         ns1:text="$$z$$"
         ns1:preamble="/home/hiro/Documents/org/roam/writeup/reworked_notes_on_the_io_theory/graphics/default_packages.tex"
         ns1:scale="0.9318245794777794"
         ns1:alignment="middle center"
         ns1:stroke-to-path="0"
         ns1:inkscapeversion="1.3.2"
         id="g2984"
         ns1:jacobian_sqrt="0.328727"
         style="fill:#8d8d8d;fill-opacity:1">
        <defs
           id="id-1575b485-a13b-4ef4-96d1-f83620ed334c">
          <g
             id="id-789f5ca5-bd98-48dc-88e2-d1ff0add2d09">
            <g
               id="id-d0f98751-1d9c-4745-bf54-98c89cf22aa9">
              <path
                 d="m 0.125,0.078125 0.140625,0.1875 h 0.0625 c 0.15625,-0.21875 0.375,-0.421875 0.625,-0.421875 l 1.15625,0.109375 c 0.4375,0.046875 1.1875,0.125 1.296875,0.125 0.625,0 0.828125,-0.390625 0.953125,-0.671875 L 4.78125,-1.390625 4.5625,-1.5 c -0.140625,0.1875 -0.28125,0.375 -0.453125,0.546875 -0.125,0.125 -0.40625,0.21875 -0.640625,0.21875 -0.09375,0 -1.0625,-0.015625 -2.046875,-0.125 L 1.375,-0.9375 C 2.359375,-2.265625 3.4375,-3.59375 4.265625,-4.46875 L 4.125,-4.609375 H 4.0625 c -0.203125,0.171875 -0.4375,0.3125 -0.71875,0.3125 -0.515625,0 -1.296875,-0.3125 -1.75,-0.3125 -0.359375,0 -0.4375,0.125 -0.609375,0.40625 l -0.5,0.890625 0.1875,0.125 c 0.3125,-0.421875 0.53125,-0.703125 0.890625,-0.703125 0.34375,0 0.875,0.1875 1.203125,0.1875 0.109375,0 0.1875,0 0.296875,-0.015625 z m 0,0"
                 id="id-7ad55a65-3379-4b43-9ed6-e5575e90a9fb" />
            </g>
          </g>
        </defs>
        <g
           fill="#000000"
           fill-opacity="1"
           id="id-205edb4c-c4ed-4f63-b550-f29bb43c40fe"
           transform="translate(-303.408,-142.111)"
           style="fill:#8d8d8d;fill-opacity:1">
          <g
             transform="translate(303.283,146.72)"
             id="g3356"
             style="fill:#8d8d8d;fill-opacity:1">
            <path
               d="m 0.125,16.175576 0.140625,0.1875 h 0.0625 c 0.15625,-0.21875 0.375,-0.421875 0.625,-0.421875 l 1.15625,0.109375 c 0.4375,0.04687 1.1875,0.125 1.296875,0.125 0.625,0 0.828125,-0.390625 0.953125,-0.671875 L 4.78125,14.706826 4.5625,14.597451 c -0.140625,0.1875 -0.28125,0.375 -0.453125,0.546875 -0.125,0.125 -0.40625,0.21875 -0.640625,0.21875 -0.09375,0 -1.0625,-0.01563 -2.046875,-0.125 L 1.375,15.159951 c 0.984375,-1.328125 2.0625,-2.65625 2.890625,-3.53125 L 4.125,11.488076 H 4.0625 c -0.203125,0.171875 -0.4375,0.3125 -0.71875,0.3125 -0.515625,0 -1.296875,-0.3125 -1.75,-0.3125 -0.359375,0 -0.4375,0.125 -0.609375,0.40625 l -0.5,0.890625 0.1875,0.125 c 0.3125,-0.421875 0.53125,-0.703125 0.890625,-0.703125 0.34375,0 0.875,0.1875 1.203125,0.1875 0.109375,0 0.1875,0 0.296875,-0.01563 z m 0,0"
               id="id-3d55da6f-03e7-49d2-81cb-998db6b58bbb"
               style="fill:#8d8d8d;fill-opacity:1" />
          </g>
        </g>
      </g>
    </g>
    <g
       id="g5">
      <path
         style="fill:none;fill-opacity:1;stroke:#8d8d8d;stroke-width:0.186004;stroke-miterlimit:4.1;stroke-opacity:1"
         d="m 30.498404,15.668953 v 1.626203 h 35.797275 v -1.803297"
         id="path5" />
      <g
         transform="matrix(0.328727,0,0,0.328727,46.569429,18.406351)"
         ns1:version="1.10.2"
         ns1:texconverter="lualatex"
         ns1:pdfconverter="inkscape"
         ns1:text="$$\\Delta z$$"
         ns1:preamble="/home/hiro/Documents/org/roam/writeup/reworked_notes_on_the_io_theory/graphics/default_packages.tex"
         ns1:scale="0.9318245794777794"
         ns1:alignment="middle center"
         ns1:stroke-to-path="0"
         ns1:inkscapeversion="1.3.2"
         id="g2017"
         ns1:jacobian_sqrt="0.328727"
         style="fill:#8d8d8d;fill-opacity:1">
        <defs
           id="id-b6568a0b-ec3a-44ba-a141-f2282928a4f5">
          <g
             id="id-bbfb7507-5024-4f8f-bfa8-19c7c4ceefa9">
            <g
               id="id-d387e047-552a-4a73-8d0f-1073404882d7">
              <path
                 d="M 0.296875,-0.453125 0.3125,-0.03125 c 0.75,-0.046875 1.46875,-0.0625 2.203125,-0.0625 1.25,0 2.5,0.046875 3.734375,0.140625 L 6.859375,-0.28125 6.875,-0.4375 C 5.953125,-2.21875 5.109375,-4.21875 4.203125,-6.9375 L 3.625,-6.6875 Z M 1,-0.640625 c 0.796875,-1.6875 1.609375,-3.25 2.546875,-4.875 H 3.65625 c 0,0 1.59375,3.984375 2,4.921875 L 5.609375,-0.5 c -1.171875,0 -2.34375,-0.03125 -3.515625,-0.03125 -0.359375,0 -0.703125,0 -1.0625,0.015625 z m 0,0"
                 id="id-789a336e-596e-498c-a7c4-a12d1b899e9c" />
            </g>
            <g
               id="id-9b23f110-86ba-4546-9c12-8b5e192dbd5e">
              <path
                 d="m 0.125,0.078125 0.140625,0.1875 h 0.0625 c 0.15625,-0.21875 0.375,-0.421875 0.625,-0.421875 l 1.15625,0.109375 c 0.4375,0.046875 1.1875,0.125 1.296875,0.125 0.625,0 0.828125,-0.390625 0.953125,-0.671875 L 4.78125,-1.390625 4.5625,-1.5 c -0.140625,0.1875 -0.28125,0.375 -0.453125,0.546875 -0.125,0.125 -0.40625,0.21875 -0.640625,0.21875 -0.09375,0 -1.0625,-0.015625 -2.046875,-0.125 L 1.375,-0.9375 C 2.359375,-2.265625 3.4375,-3.59375 4.265625,-4.46875 L 4.125,-4.609375 H 4.0625 c -0.203125,0.171875 -0.4375,0.3125 -0.71875,0.3125 -0.515625,0 -1.296875,-0.3125 -1.75,-0.3125 -0.359375,0 -0.4375,0.125 -0.609375,0.40625 l -0.5,0.890625 0.1875,0.125 c 0.3125,-0.421875 0.53125,-0.703125 0.890625,-0.703125 0.34375,0 0.875,0.1875 1.203125,0.1875 0.109375,0 0.1875,0 0.296875,-0.015625 z m 0,0"
                 id="id-8a775cdd-8d3c-40ac-b39e-4fd69695f636" />
            </g>
          </g>
        </defs>
        <g
           fill="#000000"
           fill-opacity="1"
           id="id-c50763ca-5a09-446a-b291-4abe6913629c"
           transform="translate(-300.028,-139.782)"
           style="fill:#8d8d8d;fill-opacity:1">
          <g
             transform="translate(299.731,146.72)"
             id="g5014"
             style="fill:#8d8d8d;fill-opacity:1">
            <path
               d="M 0.296875,-0.453125 0.3125,-0.03125 c 0.75,-0.046875 1.46875,-0.0625 2.203125,-0.0625 1.25,0 2.5,0.046875 3.734375,0.140625 L 6.859375,-0.28125 6.875,-0.4375 C 5.953125,-2.21875 5.109375,-4.21875 4.203125,-6.9375 L 3.625,-6.6875 Z M 1,-0.640625 c 0.796875,-1.6875 1.609375,-3.25 2.546875,-4.875 H 3.65625 c 0,0 1.59375,3.984375 2,4.921875 L 5.609375,-0.5 c -1.171875,0 -2.34375,-0.03125 -3.515625,-0.03125 -0.359375,0 -0.703125,0 -1.0625,0.015625 z m 0,0"
               id="id-0986d1a9-de11-453a-a135-b7c679bcdc8e"
               style="fill:#8d8d8d;fill-opacity:1" />
          </g>
          <g
             transform="translate(306.834,146.72)"
             id="g9775"
             style="fill:#8d8d8d;fill-opacity:1">
            <path
               d="m 0.125,0.078125 0.140625,0.1875 h 0.0625 c 0.15625,-0.21875 0.375,-0.421875 0.625,-0.421875 l 1.15625,0.109375 c 0.4375,0.046875 1.1875,0.125 1.296875,0.125 0.625,0 0.828125,-0.390625 0.953125,-0.671875 L 4.78125,-1.390625 4.5625,-1.5 c -0.140625,0.1875 -0.28125,0.375 -0.453125,0.546875 -0.125,0.125 -0.40625,0.21875 -0.640625,0.21875 -0.09375,0 -1.0625,-0.015625 -2.046875,-0.125 L 1.375,-0.9375 C 2.359375,-2.265625 3.4375,-3.59375 4.265625,-4.46875 L 4.125,-4.609375 H 4.0625 c -0.203125,0.171875 -0.4375,0.3125 -0.71875,0.3125 -0.515625,0 -1.296875,-0.3125 -1.75,-0.3125 -0.359375,0 -0.4375,0.125 -0.609375,0.40625 l -0.5,0.890625 0.1875,0.125 c 0.3125,-0.421875 0.53125,-0.703125 0.890625,-0.703125 0.34375,0 0.875,0.1875 1.203125,0.1875 0.109375,0 0.1875,0 0.296875,-0.015625 z m 0,0"
               id="id-45f66dd3-053c-4624-adfe-54502abfa278"
               style="fill:#8d8d8d;fill-opacity:1" />
          </g>
        </g>
      </g>
      <path
         style="fill:none;fill-opacity:1;stroke:#000000;stroke-width:0.214283;stroke-miterlimit:4.1;stroke-dasharray:none;stroke-dashoffset:0;stroke-opacity:1;marker-end:url(#marker74)"
         d="M 27.630367,11.358992 H 69.105403"
         id="path70" />
      <path
         style="fill:none;fill-opacity:1;stroke:#000000;stroke-width:0.214283;stroke-miterlimit:4.1;stroke-dasharray:none;stroke-dashoffset:0;stroke-opacity:1;marker-mid:url(#marker73);marker-end:url(#marker72)"
         d="M 28.333727,12.201687 V 0.56264251"
         id="path71" />
      <path
         style="fill:none;fill-opacity:1;stroke:#56949f;stroke-width:0.186004;stroke-miterlimit:4.1;stroke-opacity:1"
         d="m 28.333727,11.358992 h 1.942941 0.128734 c 1.488593,-0.05274 2.047543,-1.7147088 3.325217,-1.7147088 l 28.48586,-0.042227 c 1.080881,0 2.016112,1.6358818 4.172202,1.7569358 h 2.333755"
         id="path75"
         sodipodi:nodetypes="czzccc" />
    </g>
    <g
       transform="matrix(0.328727,0,0,0.328727,30.405402,2.8484865)"
       ns1:version="1.10.2"
       ns1:texconverter="lualatex"
       ns1:pdfconverter="inkscape"
       ns1:text="$$\\epsilon^{*}(z)$$"
       ns1:preamble="/home/hiro/Documents/org/roam/writeup/reworked_notes_on_the_io_theory/graphics/default_packages.tex"
       ns1:scale="0.9318245794777794"
       ns1:alignment="middle center"
       ns1:stroke-to-path="0"
       ns1:inkscapeversion="1.3.2"
       id="g6656"
       ns1:jacobian_sqrt="0.328727"
       style="fill:#56949f;fill-opacity:1">
      <defs
         id="id-1f2c0b79-0a76-46dc-b0fb-07be011405eb">
        <g
           id="id-78b32841-5eb3-491b-b9cb-626034abf104">
          <g
             id="id-efc68ee6-6c7b-4d33-9775-8c127daf2e52">
            <path
               d="m 0.875,-2.03125 c 0,0.609375 0.15625,1.21875 0.59375,1.65625 0.375,0.359375 0.90625,0.484375 1.4375,0.484375 0.765625,0 1.5625,-0.53125 1.984375,-0.859375 l -0.125,-0.203125 H 4.6875 C 4.296875,-0.625 3.78125,-0.46875 3.28125,-0.46875 2.578125,-0.46875 2.296875,-0.6875 2.234375,-0.75 1.890625,-1.109375 1.703125,-1.578125 1.6875,-2.078125 l 0.046875,-0.0625 c 0.265625,0 0.671875,-0.015625 0.6875,-0.015625 0.46875,0 1.109375,0 1.40625,0 l 0.140625,-0.421875 -1.1875,0.03125 c -0.015625,0 -0.640625,-0.015625 -1.015625,-0.015625 l -0.0625,-0.0625 c 0.03125,-1.5 0.984375,-1.640625 1.328125,-1.640625 0.703125,0 0.890625,0.265625 1.203125,0.703125 l 0.125,-0.015625 0.375,-0.53125 C 4.359375,-4.46875 3.875,-4.6875 3.359375,-4.6875 1.921875,-4.6875 0.875,-3.46875 0.875,-2.03125 Z m 0,0"
               id="id-c23864bc-8ce2-4d87-960e-dffee1c3d00d" />
          </g>
          <g
             id="id-3502717b-b05d-4b0a-b876-4caa64f29324">
            <path
               d="m 0.828125,-2.5 c 0,2.421875 0.390625,3.3125 0.703125,3.75 C 1.796875,1.609375 2.21875,2 2.703125,2.03125 V 1.796875 C 2.5,1.75 2.203125,1.59375 2.03125,1.390625 1.890625,1.234375 1.34375,0.578125 1.34375,-2.5 c 0,-2.109375 0.328125,-3.0625 0.546875,-3.53125 C 2.046875,-6.375 2.375,-6.671875 2.703125,-6.75 v -0.265625 c -0.40625,0.0625 -0.84375,0.390625 -1.09375,0.734375 -0.3125,0.453125 -0.78125,1.546875 -0.78125,3.78125 z m 0,0"
               id="id-041fe757-5f58-4847-acfa-5cc85645b8ab" />
          </g>
          <g
             id="id-6a50229e-3156-4caa-9afb-220f68326875">
            <path
               d="m 0.125,0.078125 0.140625,0.1875 h 0.0625 c 0.15625,-0.21875 0.375,-0.421875 0.625,-0.421875 l 1.15625,0.109375 c 0.4375,0.046875 1.1875,0.125 1.296875,0.125 0.625,0 0.828125,-0.390625 0.953125,-0.671875 L 4.78125,-1.390625 4.5625,-1.5 c -0.140625,0.1875 -0.28125,0.375 -0.453125,0.546875 -0.125,0.125 -0.40625,0.21875 -0.640625,0.21875 -0.09375,0 -1.0625,-0.015625 -2.046875,-0.125 L 1.375,-0.9375 C 2.359375,-2.265625 3.4375,-3.59375 4.265625,-4.46875 L 4.125,-4.609375 H 4.0625 c -0.203125,0.171875 -0.4375,0.3125 -0.71875,0.3125 -0.515625,0 -1.296875,-0.3125 -1.75,-0.3125 -0.359375,0 -0.4375,0.125 -0.609375,0.40625 l -0.5,0.890625 0.1875,0.125 c 0.3125,-0.421875 0.53125,-0.703125 0.890625,-0.703125 0.34375,0 0.875,0.1875 1.203125,0.1875 0.109375,0 0.1875,0 0.296875,-0.015625 z m 0,0"
               id="id-7ffccc79-0f07-460f-96c9-9a25caee3607" />
          </g>
          <g
             id="id-bfb2c8de-5158-4fd5-ad1c-85707632ba61">
            <path
               d="M 0.5625,1.796875 V 2.03125 C 1.046875,1.96875 1.5,1.640625 1.78125,1.265625 2.078125,0.84375 2.46875,-0.078125 2.46875,-2.5 2.46875,-5 1.9375,-5.828125 1.640625,-6.28125 1.390625,-6.625 0.984375,-6.953125 0.5625,-7.015625 V -6.75 c 0.328125,0.09375 0.640625,0.375 0.796875,0.71875 C 1.578125,-5.5625 1.9375,-4.8125 1.9375,-2.5 1.9375,0.984375 1.421875,1.234375 1.28125,1.390625 1.109375,1.59375 0.765625,1.75 0.5625,1.796875 Z m 0,0"
               id="id-a9c78289-34d3-44f2-ae75-13cab5196c5f" />
          </g>
          <g
             id="id-f00d9196-334c-4a54-a2bb-6b9e0e61bc85">
            <path
               d="M 0.203125,-1.21875 0.5,-0.71875 C 0.84375,-1.109375 1.203125,-1.4375 1.578125,-1.734375 1.5625,-1.125 1.53125,-0.703125 1.453125,-0.1875 H 2 c -0.109375,-0.5 -0.125,-0.953125 -0.140625,-1.4375 0.359375,0.265625 0.6875,0.578125 0.921875,0.84375 l 0.375,-0.40625 C 2.765625,-1.359375 2.359375,-1.640625 1.921875,-1.96875 2.3125,-2.25 2.703125,-2.484375 3.15625,-2.6875 L 2.796875,-3.125 c -0.28125,0.296875 -0.59375,0.59375 -0.9375,0.859375 C 1.875,-2.71875 1.90625,-3.125 2,-3.578125 H 1.453125 C 1.5625,-3.125 1.5625,-2.6875 1.5625,-2.25 1.21875,-2.515625 0.921875,-2.78125 0.609375,-3.0625 l -0.375,0.390625 c 0.40625,0.203125 0.78125,0.421875 1.1875,0.71875 -0.359375,0.25 -0.734375,0.5 -1.21875,0.734375 z m 0,0"
               id="id-cd0c9994-478e-466a-bf3b-02a7828a095b" />
          </g>
        </g>
      </defs>
      <g
         fill="#000000"
         fill-opacity="1"
         id="id-081df224-2fd0-425f-81f2-0a481f26b490"
         transform="translate(-296.22,-139.525)"
         style="fill:#56949f;fill-opacity:1">
        <g
           transform="translate(295.345,146.72)"
           id="g2184"
           style="fill:#56949f;fill-opacity:1">
          <path
             d="m 0.875,-2.03125 c 0,0.609375 0.15625,1.21875 0.59375,1.65625 0.375,0.359375 0.90625,0.484375 1.4375,0.484375 0.765625,0 1.5625,-0.53125 1.984375,-0.859375 l -0.125,-0.203125 H 4.6875 C 4.296875,-0.625 3.78125,-0.46875 3.28125,-0.46875 2.578125,-0.46875 2.296875,-0.6875 2.234375,-0.75 1.890625,-1.109375 1.703125,-1.578125 1.6875,-2.078125 l 0.046875,-0.0625 c 0.265625,0 0.671875,-0.015625 0.6875,-0.015625 0.46875,0 1.109375,0 1.40625,0 l 0.140625,-0.421875 -1.1875,0.03125 c -0.015625,0 -0.640625,-0.015625 -1.015625,-0.015625 l -0.0625,-0.0625 c 0.03125,-1.5 0.984375,-1.640625 1.328125,-1.640625 0.703125,0 0.890625,0.265625 1.203125,0.703125 l 0.125,-0.015625 0.375,-0.53125 C 4.359375,-4.46875 3.875,-4.6875 3.359375,-4.6875 1.921875,-4.6875 0.875,-3.46875 0.875,-2.03125 Z m 0,0"
             id="id-449f78e9-1d5f-4884-8a02-c28f35ae4797"
             style="fill:#56949f;fill-opacity:1" />
        </g>
      </g>
      <g
         fill="#000000"
         fill-opacity="1"
         id="id-c2e87f22-0e6a-4cfe-8d31-09a7cd1a0fe1"
         transform="translate(-296.22,-139.525)"
         style="fill:#56949f;fill-opacity:1">
        <g
           transform="translate(300.825,143.103)"
           id="g5567"
           style="fill:#56949f;fill-opacity:1">
          <path
             d="M 0.203125,-1.21875 0.5,-0.71875 C 0.84375,-1.109375 1.203125,-1.4375 1.578125,-1.734375 1.5625,-1.125 1.53125,-0.703125 1.453125,-0.1875 H 2 c -0.109375,-0.5 -0.125,-0.953125 -0.140625,-1.4375 0.359375,0.265625 0.6875,0.578125 0.921875,0.84375 l 0.375,-0.40625 C 2.765625,-1.359375 2.359375,-1.640625 1.921875,-1.96875 2.3125,-2.25 2.703125,-2.484375 3.15625,-2.6875 L 2.796875,-3.125 c -0.28125,0.296875 -0.59375,0.59375 -0.9375,0.859375 C 1.875,-2.71875 1.90625,-3.125 2,-3.578125 H 1.453125 C 1.5625,-3.125 1.5625,-2.6875 1.5625,-2.25 1.21875,-2.515625 0.921875,-2.78125 0.609375,-3.0625 l -0.375,0.390625 c 0.40625,0.203125 0.78125,0.421875 1.1875,0.71875 -0.359375,0.25 -0.734375,0.5 -1.21875,0.734375 z m 0,0"
             id="id-761e8856-da75-4168-afa8-e8459153e1eb"
             style="fill:#56949f;fill-opacity:1" />
        </g>
      </g>
      <g
         fill="#000000"
         fill-opacity="1"
         id="id-d3a1dbf8-3bd1-490c-b0d1-9b4ef04984c4"
         transform="translate(-296.22,-139.525)"
         style="fill:#56949f;fill-opacity:1">
        <g
           transform="translate(304.684,146.72)"
           id="g131"
           style="fill:#56949f;fill-opacity:1">
          <path
             d="m 0.828125,-2.5 c 0,2.421875 0.390625,3.3125 0.703125,3.75 C 1.796875,1.609375 2.21875,2 2.703125,2.03125 V 1.796875 C 2.5,1.75 2.203125,1.59375 2.03125,1.390625 1.890625,1.234375 1.34375,0.578125 1.34375,-2.5 c 0,-2.109375 0.328125,-3.0625 0.546875,-3.53125 C 2.046875,-6.375 2.375,-6.671875 2.703125,-6.75 v -0.265625 c -0.40625,0.0625 -0.84375,0.390625 -1.09375,0.734375 -0.3125,0.453125 -0.78125,1.546875 -0.78125,3.78125 z m 0,0"
             id="id-a6fa7edd-20a4-4ffe-bf6f-caf45be39fd3"
             style="fill:#56949f;fill-opacity:1" />
        </g>
        <g
           transform="translate(307.952,146.72)"
           id="g5548"
           style="fill:#56949f;fill-opacity:1">
          <path
             d="m 0.125,0.078125 0.140625,0.1875 h 0.0625 c 0.15625,-0.21875 0.375,-0.421875 0.625,-0.421875 l 1.15625,0.109375 c 0.4375,0.046875 1.1875,0.125 1.296875,0.125 0.625,0 0.828125,-0.390625 0.953125,-0.671875 L 4.78125,-1.390625 4.5625,-1.5 c -0.140625,0.1875 -0.28125,0.375 -0.453125,0.546875 -0.125,0.125 -0.40625,0.21875 -0.640625,0.21875 -0.09375,0 -1.0625,-0.015625 -2.046875,-0.125 L 1.375,-0.9375 C 2.359375,-2.265625 3.4375,-3.59375 4.265625,-4.46875 L 4.125,-4.609375 H 4.0625 c -0.203125,0.171875 -0.4375,0.3125 -0.71875,0.3125 -0.515625,0 -1.296875,-0.3125 -1.75,-0.3125 -0.359375,0 -0.4375,0.125 -0.609375,0.40625 l -0.5,0.890625 0.1875,0.125 c 0.3125,-0.421875 0.53125,-0.703125 0.890625,-0.703125 0.34375,0 0.875,0.1875 1.203125,0.1875 0.109375,0 0.1875,0 0.296875,-0.015625 z m 0,0"
             id="id-db84d3ed-5fe8-4f25-995a-cfa857f5746e"
             style="fill:#56949f;fill-opacity:1" />
        </g>
        <g
           transform="translate(312.634,146.72)"
           id="g5261"
           style="fill:#56949f;fill-opacity:1">
          <path
             d="M 0.5625,1.796875 V 2.03125 C 1.046875,1.96875 1.5,1.640625 1.78125,1.265625 2.078125,0.84375 2.46875,-0.078125 2.46875,-2.5 2.46875,-5 1.9375,-5.828125 1.640625,-6.28125 1.390625,-6.625 0.984375,-6.953125 0.5625,-7.015625 V -6.75 c 0.328125,0.09375 0.640625,0.375 0.796875,0.71875 C 1.578125,-5.5625 1.9375,-4.8125 1.9375,-2.5 1.9375,0.984375 1.421875,1.234375 1.28125,1.390625 1.109375,1.59375 0.765625,1.75 0.5625,1.796875 Z m 0,0"
             id="id-7a3f77ce-6960-4a71-84ed-5565ff06ccfa"
             style="fill:#56949f;fill-opacity:1" />
        </g>
      </g>
    </g>
  </g>
</svg>
